<?xml version="1.0" encoding="utf-8"?>
<!-- Generator: Adobe Illustrator 18.1.1, SVG Export Plug-In . SVG Version: 6.00 Build 0)  -->
<svg version="1.1" id="Layer_1" xmlns="http://www.w3.org/2000/svg" xmlns:xlink="http://www.w3.org/1999/xlink" x="0px" y="0px"
	 viewBox="0 0 28 23" enable-background="new 0 0 28 23" xml:space="preserve">
<circle fill="#F0DF14" cx="11.5" cy="11.5" r="11.5"/>
<g>
	<g>
		<path fill="#353535" stroke="#FFFFFF" stroke-miterlimit="10" d="M27.1,3.3l-1.9-1.9c-0.3-0.3-0.6-0.4-1-0.4c-0.4,0-0.7,0.1-1,0.4
			l-9.4,9.4L9.5,6.5c-0.3-0.3-0.6-0.4-1-0.4c-0.4,0-0.7,0.1-1,0.4L5.6,8.5c-0.3,0.3-0.4,0.6-0.4,1c0,0.4,0.1,0.7,0.4,1l5.2,5.2
			l1.9,1.9c0.3,0.3,0.6,0.4,1,0.4s0.7-0.1,1-0.4l1.9-1.9L27.1,5.2c0.3-0.3,0.4-0.6,0.4-1S27.3,3.6,27.1,3.3L27.1,3.3z M27.1,3.3"/>
	</g>
</g>
</svg>
